Chivo-Bold Italic.ufo
<glyph name="one" format="1">
  <advance width="612"/>
  <unicode hex="0031"/>
  <outline>
    <contour>
      <point x="507" y="0" type="line"/>
      <point x="524" y="121" type="line"/>
      <point x="361" y="121" type="line"/>
      <point x="441" y="691" type="line"/>
      <point x="388" y="691" type="line"/>
      <point x="301" y="646"/>
      <point x="193" y="609"/>
      <point x="115" y="603" type="curve"/>
      <point x="102" y="514" type="line"/>
      <point x="269" y="514" type="line"/>
      <point x="214" y="121" type="line"/>
      <point x="48" y="121" type="line"/>
      <point x="31" y="0" type="line"/>
    </contour>
  </outline>
</glyph>
<glyph name="colon" format="1">
  <advance width="277"/>
  <unicode hex="003A"/>
  <outline>
    <contour>
      <point x="29" y="0" type="line"/>
      <point x="175" y="0" type="line"/>
      <point x="195" y="147" type="line"/>
      <point x="49" y="147" type="line"/>
    </contour>
    <contour>
      <point x="80" y="363" type="line"/>
      <point x="226" y="363" type="line"/>
      <point x="246" y="511" type="line"/>
      <point x="100" y="511" type="line"/>
    </contour>
  </outline>
</glyph>
<glyph name="greater" format="1">
  <advance width="600"/>
  <unicode hex="003E"/>
  <outline>
    <contour>
      <point x="562" y="315" type="line"/>
      <point x="81" y="512" type="line"/>
      <point x="65" y="398" type="line"/>
      <point x="187" y="349"/>
      <point x="309" y="302"/>
      <point x="432" y="254" type="curve"/>
      <point x="24" y="110" type="line"/>
      <point x="8" y="-3" type="line"/>
      <point x="187" y="61"/>
      <point x="366" y="127"/>
      <point x="545" y="192" type="curve"/>
    </contour>
  </outline>
</glyph>
<glyph name="C" format="1">
  <advance width="683"/>
  <unicode hex="0043"/>
  <outline>
    <contour>
      <point x="483" y="270" type="line"/>
      <point x="468" y="165"/>
      <point x="416" y="113"/>
      <point x="325" y="113" type="curve" smooth="yes"/>
      <point x="247" y="113"/>
      <point x="196" y="151"/>
      <point x="196" y="240" type="curve" smooth="yes"/>
      <point x="196" y="270"/>
      <point x="202" y="303"/>
      <point x="214" y="382" type="curve" smooth="yes"/>
      <point x="231" y="498"/>
      <point x="269" y="573"/>
      <point x="384" y="573" type="curve" smooth="yes"/>
      <point x="454" y="573"/>
      <point x="501" y="531"/>
      <point x="501" y="457" type="curve" smooth="yes"/>
      <point x="501" y="453" type="line"/>
      <point x="500" y="440"/>
      <point x="499" y="427"/>
      <point x="497" y="414" type="curve"/>
      <point x="644" y="414" type="line"/>
      <point x="647" y="433"/>
      <point x="648" y="451"/>
      <point x="648" y="468" type="curve" smooth="yes"/>
      <point x="648" y="620"/>
      <point x="546" y="696"/>
      <point x="406" y="696" type="curve" smooth="yes"/>
      <point x="392" y="696" type="line" smooth="yes"/>
      <point x="214" y="696"/>
      <point x="81" y="586"/>
      <point x="54" y="392" type="curve" smooth="yes"/>
      <point x="38" y="277"/>
      <point x="35" y="255"/>
      <point x="35" y="237" type="curve" smooth="yes"/>
      <point x="35" y="75"/>
      <point x="144" y="-10"/>
      <point x="297" y="-10" type="curve" smooth="yes"/>
      <point x="311" y="-10" type="line" smooth="yes"/>
      <point x="480" y="-10"/>
      <point x="598" y="88"/>
      <point x="624" y="270" type="curve"/>
    </contour>
    <contour>
      <point x="403" y="686" type="move" name="top"/>
    </contour>
    <contour>
      <point x="306" y="0" type="move" name="bottom"/>
    </contour>
  </outline>
</glyph>
<glyph name="D" format="1">
  <advance width="686"/>
  <unicode hex="0044"/>
  <outline>
    <contour>
      <point x="23" y="0" type="line"/>
      <point x="268" y="0" type="line" smooth="yes"/>
      <point x="478" y="0"/>
      <point x="602" y="98"/>
      <point x="630" y="294" type="curve" smooth="yes"/>
      <point x="647" y="409"/>
      <point x="648" y="416"/>
      <point x="648" y="443" type="curve" smooth="yes"/>
      <point x="648" y="593"/>
      <point x="541" y="686"/>
      <point x="395" y="686" type="curve" smooth="yes"/>
      <point x="120" y="686" type="line"/>
    </contour>
    <contour>
      <point x="257" y="563" type="line"/>
      <point x="363" y="563" type="line" smooth="yes"/>
      <point x="437" y="563"/>
      <point x="488" y="520"/>
      <point x="488" y="449" type="curve" smooth="yes"/>
      <point x="488" y="406"/>
      <point x="480" y="364"/>
      <point x="466" y="272" type="curve" smooth="yes"/>
      <point x="451" y="174"/>
      <point x="388" y="123"/>
      <point x="301" y="123" type="curve" smooth="yes"/>
      <point x="196" y="123" type="line"/>
    </contour>
    <contour>
      <point x="367" y="343" type="move" name="center"/>
    </contour>
    <contour>
      <point x="404" y="686" type="move" name="top"/>
    </contour>
  </outline>
</glyph>
<glyph name="E" format="1">
  <advance width="598"/>
  <unicode hex="0045"/>
  <outline>
    <contour>
      <point x="509" y="0" type="line"/>
      <point x="509" y="123" type="line"/>
      <point x="193" y="123" type="line"/>
      <point x="216" y="290" type="line"/>
      <point x="509" y="290" type="line"/>
      <point x="526" y="413" type="line"/>
      <point x="233" y="413" type="line"/>
      <point x="254" y="563" type="line"/>
      <point x="568" y="563" type="line"/>
      <point x="603" y="686" type="line"/>
      <point x="120" y="686" type="line"/>
      <point x="23" y="0" type="line"/>
    </contour>
    <contour>
      <point x="502" y="10" type="move" name="ogonek"/>
    </contour>
    <contour>
      <point x="263" y="0" type="move" name="bottom"/>
    </contour>
    <contour>
      <point x="360" y="686" type="move" name="top"/>
    </contour>
  </outline>
</glyph>
<glyph name="V" format="1">
  <advance width="643"/>
  <unicode hex="0056"/>
  <outline>
    <contour>
      <point x="304" y="196" type="line"/>
      <point x="217" y="686" type="line"/>
      <point x="55" y="686" type="line"/>
      <point x="183" y="0" type="line"/>
      <point x="360" y="0" type="line"/>
      <point x="683" y="686" type="line"/>
      <point x="535" y="686" type="line"/>
      <point x="309" y="196" type="line"/>
    </contour>
  </outline>
</glyph>
<glyph name="Z" format="1">
  <advance width="631"/>
  <unicode hex="005A"/>
  <outline>
    <contour>
      <point x="540" y="0" type="line"/>
      <point x="558" y="123" type="line"/>
      <point x="235" y="123" type="line"/>
      <point x="622" y="636" type="line"/>
      <point x="629" y="686" type="line"/>
      <point x="114" y="686" type="line"/>
      <point x="96" y="563" type="line"/>
      <point x="388" y="563" type="line"/>
      <point x="0" y="49" type="line"/>
      <point x="-6" y="0" type="line"/>
    </contour>
    <contour>
      <point x="377" y="686" type="move" name="top"/>
    </contour>
  </outline>
</glyph>
<glyph name="bracketright" format="1">
  <advance width="338"/>
  <unicode hex="005D"/>
  <outline>
    <contour>
      <point x="214" y="-161" type="line"/>
      <point x="333" y="686" type="line"/>
      <point x="130" y="686" type="line"/>
      <point x="120" y="617" type="line"/>
      <point x="208" y="617" type="line"/>
      <point x="109" y="-92" type="line"/>
      <point x="21" y="-92" type="line"/>
      <point x="11" y="-161" type="line"/>
    </contour>
  </outline>
</glyph>
<glyph name="asciicircum" format="1">
  <advance width="598"/>
  <unicode hex="005E"/>
  <outline>
    <contour>
      <point x="273" y="511" type="line"/>
      <point x="5" y="0" type="line"/>
      <point x="117" y="0" type="line"/>
      <point x="184" y="128"/>
      <point x="250" y="256"/>
      <point x="317" y="385" type="curve"/>
      <point x="347" y="256"/>
      <point x="378" y="128"/>
      <point x="409" y="0" type="curve"/>
      <point x="520" y="0" type="line"/>
      <point x="394" y="511" type="line"/>
    </contour>
  </outline>
</glyph>
<glyph name="underscore" format="1">
  <advance width="500"/>
  <unicode hex="005F"/>
  <outline>
    <contour>
      <point x="495" y="-126" type="line"/>
      <point x="504" y="-65" type="line"/>
      <point x="4" y="-65" type="line"/>
      <point x="-4" y="-126" type="line"/>
    </contour>
  </outline>
</glyph>
<glyph name="i" format="1">
  <advance width="278"/>
  <unicode hex="0069"/>
  <outline>
    <contour>
      <point x="161" y="0" type="line"/>
      <point x="233" y="511" type="line"/>
      <point x="87" y="511" type="line"/>
      <point x="15" y="0" type="line"/>
    </contour>
    <contour>
      <point x="99" y="605" type="line"/>
      <point x="247" y="605" type="line"/>
      <point x="263" y="720" type="line"/>
      <point x="115" y="720" type="line"/>
    </contour>
  </outline>
</glyph>
<glyph name="j" format="1">
  <advance width="280"/>
  <unicode hex="006A"/>
  <outline>
    <contour>
      <point x="26" y="-18" type="line" smooth="yes"/>
      <point x="18" y="-77"/>
      <point x="-10" y="-86"/>
      <point x="-38" y="-86" type="curve" smooth="yes"/>
      <point x="-53" y="-86"/>
      <point x="-83" y="-80"/>
      <point x="-97" y="-73" type="curve"/>
      <point x="-110" y="-166" type="line"/>
      <point x="-85" y="-179"/>
      <point x="-35" y="-186"/>
      <point x="-4" y="-186" type="curve" smooth="yes"/>
      <point x="96" y="-186"/>
      <point x="156" y="-133"/>
      <point x="172" y="-20" type="curve" smooth="yes"/>
      <point x="247" y="510" type="line"/>
      <point x="101" y="510" type="line"/>
    </contour>
    <contour>
      <point x="113" y="605" type="line"/>
      <point x="261" y="605" type="line"/>
      <point x="277" y="720" type="line"/>
      <point x="129" y="720" type="line"/>
    </contour>
  </outline>
</glyph>
<glyph name="braceleft" format="1">
  <advance width="347"/>
  <unicode hex="007B"/>
  <outline>
    <contour>
      <point x="34" y="224" type="line"/>
      <point x="72" y="224"/>
      <point x="103" y="210"/>
      <point x="103" y="168" type="curve"/>
      <point x="74" y="-42"/>
      <point x="73" y="-46"/>
      <point x="73" y="-57" type="curve" smooth="yes"/>
      <point x="73" y="-153"/>
      <point x="172" y="-159"/>
      <point x="247" y="-159" type="curve"/>
      <point x="255" y="-100" type="line"/>
      <point x="213" y="-100"/>
      <point x="187" y="-93"/>
      <point x="187" y="-39" type="curve" smooth="yes"/>
      <point x="187" y="17"/>
      <point x="206" y="119"/>
      <point x="206" y="178" type="curve" smooth="yes"/>
      <point x="206" y="229"/>
      <point x="183" y="259"/>
      <point x="125" y="259" type="curve"/>
      <point x="126" y="268" type="line"/>
      <point x="192" y="268"/>
      <point x="224" y="306"/>
      <point x="236" y="371" type="curve" smooth="yes"/>
      <point x="267" y="545" type="line" smooth="yes"/>
      <point x="280" y="618"/>
      <point x="311" y="627"/>
      <point x="358" y="627" type="curve"/>
      <point x="366" y="686" type="line"/>
      <point x="283" y="686"/>
      <point x="174" y="678"/>
      <point x="158" y="560" type="curve" smooth="yes"/>
      <point x="130" y="360" type="line" smooth="yes"/>
      <point x="124" y="319"/>
      <point x="80" y="303"/>
      <point x="45" y="303" type="curve"/>
    </contour>
  </outline>
</glyph>
<glyph name="currency" format="1">
  <advance width="663"/>
  <unicode hex="00A4"/>
  <outline>
    <contour>
      <point x="78" y="259"/>
      <point x="89" y="222"/>
      <point x="110" y="192" type="curve"/>
      <point x="46" y="137" type="line"/>
      <point x="93" y="82" type="line"/>
      <point x="114" y="101"/>
      <point x="135" y="119"/>
      <point x="156" y="137" type="curve"/>
      <point x="189" y="107"/>
      <point x="239" y="90"/>
      <point x="295" y="90" type="curve" smooth="yes"/>
      <point x="352" y="90"/>
      <point x="407" y="108"/>
      <point x="447" y="139" type="curve"/>
      <point x="461" y="122"/>
      <point x="476" y="104"/>
      <point x="496" y="83" type="curve"/>
      <point x="557" y="137" type="line"/>
      <point x="542" y="155"/>
      <point x="525" y="173"/>
      <point x="510" y="192" type="curve"/>
      <point x="554" y="239"/>
      <point x="580" y="308"/>
      <point x="580" y="377" type="curve" smooth="yes"/>
      <point x="580" y="418"/>
      <point x="570" y="455"/>
      <point x="553" y="482" type="curve"/>
      <point x="615" y="537" type="line"/>
      <point x="598" y="556"/>
      <point x="582" y="575"/>
      <point x="566" y="595" type="curve"/>
      <point x="502" y="539" type="line"/>
      <point x="472" y="567"/>
      <point x="421" y="586"/>
      <point x="364" y="586" type="curve" smooth="yes"/>
      <point x="310" y="586"/>
      <point x="253" y="567"/>
      <point x="213" y="539" type="curve"/>
      <point x="166" y="593" type="line"/>
      <point x="104" y="538" type="line"/>
      <point x="150" y="483" type="line"/>
      <point x="103" y="433"/>
      <point x="78" y="367"/>
      <point x="78" y="302" type="curve" smooth="yes"/>
    </contour>
    <contour>
      <point x="431" y="496"/>
      <point x="485" y="437"/>
      <point x="485" y="362" type="curve" smooth="yes"/>
      <point x="485" y="265"/>
      <point x="403" y="179"/>
      <point x="307" y="179" type="curve" smooth="yes"/>
      <point x="229" y="179"/>
      <point x="174" y="238"/>
      <point x="174" y="315" type="curve" smooth="yes"/>
      <point x="174" y="411"/>
      <point x="260" y="496"/>
      <point x="352" y="496" type="curve" smooth="yes"/>
    </contour>
  </outline>
</glyph>
<glyph name="brokenbar" format="1">
  <advance width="277"/>
  <unicode hex="00A6"/>
  <outline>
    <contour>
      <point x="29" y="0" type="line"/>
      <point x="149" y="0" type="line"/>
      <point x="187" y="270" type="line"/>
      <point x="67" y="270" type="line"/>
    </contour>
    <contour>
      <point x="88" y="415" type="line"/>
      <point x="208" y="415" type="line"/>
      <point x="246" y="686" type="line"/>
      <point x="126" y="686" type="line"/>
    </contour>
  </outline>
</glyph>
<glyph name="ordfeminine" format="1">
  <advance width="389"/>
  <unicode hex="00AA"/>
  <outline>
    <contour>
      <point x="276" y="690" type="line"/>
      <point x="256" y="652" type="line"/>
      <point x="252" y="652" type="line"/>
      <point x="236" y="679"/>
      <point x="205" y="696"/>
      <point x="168" y="696" type="curve" smooth="yes"/>
      <point x="77" y="696"/>
      <point x="22" y="605"/>
      <point x="22" y="496" type="curve" smooth="yes"/>
      <point x="22" y="420"/>
      <point x="58" y="374"/>
      <point x="126" y="374" type="curve" smooth="yes"/>
      <point x="165" y="374"/>
      <point x="198" y="393"/>
      <point x="222" y="420" type="curve"/>
      <point x="225" y="390"/>
      <point x="245" y="374"/>
      <point x="286" y="374" type="curve" smooth="yes"/>
      <point x="307" y="374"/>
      <point x="328" y="380"/>
      <point x="341" y="387" type="curve"/>
      <point x="349" y="443" type="line"/>
      <point x="343" y="439"/>
      <point x="332" y="435"/>
      <point x="324" y="435" type="curve" smooth="yes"/>
      <point x="314" y="435"/>
      <point x="308" y="441"/>
      <point x="308" y="451" type="curve" smooth="yes"/>
      <point x="308" y="460"/>
      <point x="333" y="635"/>
      <point x="341" y="690" type="curve"/>
    </contour>
    <contour>
      <point x="220" y="459"/>
      <point x="191" y="435"/>
      <point x="159" y="435" type="curve" smooth="yes"/>
      <point x="129" y="435"/>
      <point x="109" y="453"/>
      <point x="109" y="491" type="curve" smooth="yes"/>
      <point x="109" y="496"/>
      <point x="110" y="502"/>
      <point x="118" y="558" type="curve" smooth="yes"/>
      <point x="125" y="607"/>
      <point x="153" y="632"/>
      <point x="186" y="632" type="curve" smooth="yes"/>
      <point x="215" y="632"/>
      <point x="236" y="613"/>
      <point x="236" y="575" type="curve" smooth="yes"/>
      <point x="236" y="570"/>
      <point x="235" y="564"/>
      <point x="227" y="508" type="curve" smooth="yes"/>
    </contour>
  </outline>
</glyph>
<glyph name="logicalnot" format="1">
  <advance width="600"/>
  <unicode hex="00AC"/>
  <outline>
    <contour>
      <point x="585" y="468" type="line"/>
      <point x="56" y="468" type="line"/>
      <point x="39" y="347" type="line"/>
      <point x="451" y="347" type="line"/>
      <point x="425" y="166" type="line"/>
      <point x="542" y="166" type="line"/>
    </contour>
  </outline>
</glyph>
<glyph name="uni00AD" format="1">
  <advance width="260"/>
  <unicode hex="00AD"/>
  <outline>
    <contour>
      <point x="-8" y="208" type="line"/>
      <point x="244" y="208" type="line"/>
      <point x="261" y="336" type="line"/>
      <point x="8" y="336" type="line"/>
    </contour>
  </outline>
</glyph>
<glyph name="registered" format="1">
  <advance width="740"/>
  <unicode hex="00AE"/>
  <outline>
    <contour>
      <point x="724" y="539"/>
      <point x="565" y="696"/>
      <point x="370" y="696" type="curve" smooth="yes"/>
      <point x="174" y="696"/>
      <point x="16" y="539"/>
      <point x="16" y="344" type="curve" smooth="yes"/>
      <point x="16" y="147"/>
      <point x="174" y="-10"/>
      <point x="370" y="-10" type="curve" smooth="yes"/>
      <point x="565" y="-10"/>
      <point x="724" y="147"/>
      <point x="724" y="344" type="curve" smooth="yes"/>
    </contour>
    <contour>
      <point x="666" y="165"/>
      <point x="542" y="42"/>
      <point x="370" y="42" type="curve" smooth="yes"/>
      <point x="195" y="42"/>
      <point x="74" y="165"/>
      <point x="74" y="344" type="curve" smooth="yes"/>
      <point x="74" y="520"/>
      <point x="195" y="644"/>
      <point x="370" y="644" type="curve" smooth="yes"/>
      <point x="542" y="644"/>
      <point x="666" y="520"/>
      <point x="666" y="344" type="curve" smooth="yes"/>
    </contour>
    <contour>
      <point x="562" y="161" type="line"/>
      <point x="535" y="169"/>
      <point x="531" y="210"/>
      <point x="531" y="237" type="curve" smooth="yes"/>
      <point x="531" y="305"/>
      <point x="494" y="337"/>
      <point x="465" y="346" type="curve"/>
      <point x="465" y="351" type="line"/>
      <point x="507" y="359"/>
      <point x="539" y="404"/>
      <point x="539" y="448" type="curve" smooth="yes"/>
      <point x="539" y="527"/>
      <point x="468" y="551"/>
      <point x="399" y="551" type="curve" smooth="yes"/>
      <point x="214" y="551" type="line"/>
      <point x="214" y="137" type="line"/>
      <point x="306" y="137" type="line"/>
      <point x="306" y="308" type="line"/>
      <point x="376" y="308" type="line" smooth="yes"/>
      <point x="430" y="308"/>
      <point x="441" y="258"/>
      <point x="441" y="198" type="curve" smooth="yes"/>
      <point x="441" y="147"/>
      <point x="474" y="132"/>
      <point x="510" y="132" type="curve" smooth="yes"/>
      <point x="527" y="132"/>
      <point x="548" y="135"/>
      <point x="562" y="140" type="curve"/>
    </contour>
    <contour>
      <point x="306" y="381" type="line"/>
      <point x="306" y="476" type="line"/>
      <point x="396" y="476" type="line" smooth="yes"/>
      <point x="425" y="476"/>
      <point x="445" y="457"/>
      <point x="445" y="431" type="curve" smooth="yes"/>
      <point x="445" y="426" type="line" smooth="yes"/>
      <point x="445" y="401"/>
      <point x="423" y="381"/>
      <point x="396" y="381" type="curve" smooth="yes"/>
    </contour>
  </outline>
</glyph>
<glyph name="paragraph" format="1">
  <advance width="526"/>
  <unicode hex="00B6"/>
  <outline>
    <contour>
      <point x="165" y="-165" type="line"/>
      <point x="241" y="-165" type="line"/>
      <point x="350" y="616" type="line"/>
      <point x="424" y="616" type="line"/>
      <point x="315" y="-165" type="line"/>
      <point x="390" y="-165" type="line"/>
      <point x="499" y="616" type="line"/>
      <point x="565" y="616" type="line"/>
      <point x="575" y="686" type="line"/>
      <point x="302" y="686" type="line" smooth="yes"/>
      <point x="171" y="686"/>
      <point x="53" y="583"/>
      <point x="53" y="437" type="curve" smooth="yes"/>
      <point x="53" y="336"/>
      <point x="122" y="259"/>
      <point x="223" y="251" type="curve"/>
    </contour>
  </outline>
</glyph>
<glyph name="cedilla" format="1">
  <advance width="342"/>
  <unicode hex="00B8"/>
  <outline>
    <contour>
      <point x="49" y="-168" type="line"/>
      <point x="73" y="-187"/>
      <point x="116" y="-197"/>
      <point x="153" y="-197" type="curve" smooth="yes"/>
      <point x="199" y="-197"/>
      <point x="286" y="-180"/>
      <point x="286" y="-91" type="curve" smooth="yes"/>
      <point x="286" y="-32"/>
      <point x="233" y="-17"/>
      <point x="181" y="-17" type="curve" smooth="yes"/>
      <point x="158" y="-17" type="line"/>
      <point x="151" y="-68" type="line"/>
      <point x="171" y="-68" type="line" smooth="yes"/>
      <point x="197" y="-68"/>
      <point x="211" y="-79"/>
      <point x="211" y="-99" type="curve" smooth="yes"/>
      <point x="211" y="-130"/>
      <point x="184" y="-142"/>
      <point x="157" y="-142" type="curve" smooth="yes"/>
      <point x="110" y="-142"/>
      <point x="83" y="-119"/>
      <point x="77" y="-116" type="curve"/>
    </contour>
    <contour>
      <point x="183" y="0" type="move" name="_bottom"/>
    </contour>
  </outline>
</glyph>
<glyph name="Aacute" format="1">
  <advance width="686"/>
  <unicode hex="00C1"/>
  <outline>
    <contour>
      <point x="473" y="0" type="line"/>
      <point x="635" y="0" type="line"/>
      <point x="483" y="686" type="line"/>
      <point x="299" y="686" type="line"/>
      <point x="-46" y="0" type="line"/>
      <point x="102" y="0" type="line"/>
      <point x="169" y="135" type="line"/>
      <point x="442" y="135" type="line"/>
    </contour>
    <contour>
      <point x="364" y="521" type="line"/>
      <point x="382" y="432"/>
      <point x="400" y="342"/>
      <point x="418" y="252" type="curve"/>
      <point x="228" y="252" type="line"/>
      <point x="271" y="342"/>
      <point x="315" y="432"/>
      <point x="359" y="521" type="curve"/>
    </contour>
    <contour>
      <point x="427" y="750" type="line"/>
      <point x="568" y="891" type="line"/>
      <point x="568" y="895" type="line"/>
      <point x="439" y="895" type="line"/>
      <point x="326" y="750" type="line"/>
    </contour>
  </outline>
</glyph>
<glyph name="Edieresis" format="1">
  <advance width="598"/>
  <unicode hex="00CB"/>
  <outline>
    <contour>
      <point x="509" y="0" type="line"/>
      <point x="509" y="123" type="line"/>
      <point x="193" y="123" type="line"/>
      <point x="216" y="290" type="line"/>
      <point x="509" y="290" type="line"/>
      <point x="526" y="413" type="line"/>
      <point x="233" y="413" type="line"/>
      <point x="254" y="563" type="line"/>
      <point x="568" y="563" type="line"/>
      <point x="603" y="686" type="line"/>
      <point x="120" y="686" type="line"/>
      <point x="23" y="0" type="line"/>
    </contour>
    <contour>
      <point x="200" y="750" type="line"/>
      <point x="321" y="750" type="line"/>
      <point x="338" y="872" type="line"/>
      <point x="217" y="872" type="line"/>
    </contour>
    <contour>
      <point x="404" y="750" type="line"/>
      <point x="525" y="750" type="line"/>
      <point x="542" y="872" type="line"/>
      <point x="421" y="872" type="line"/>
    </contour>
  </outline>
</glyph>
<glyph name="Yacute" format="1">
  <advance width="637"/>
  <unicode hex="00DD"/>
  <outline>
    <contour>
      <point x="678" y="686" type="line"/>
      <point x="520" y="686" type="line"/>
      <point x="338" y="414" type="line"/>
      <point x="333" y="414" type="line"/>
      <point x="229" y="686" type="line"/>
      <point x="55" y="686" type="line"/>
      <point x="230" y="263" type="line"/>
      <point x="193" y="0" type="line"/>
      <point x="347" y="0" type="line"/>
      <point x="384" y="263" type="line"/>
    </contour>
    <contour>
      <point x="433" y="750" type="line"/>
      <point x="574" y="891" type="line"/>
      <point x="574" y="895" type="line"/>
      <point x="445" y="895" type="line"/>
      <point x="332" y="750" type="line"/>
    </contour>
  </outline>
</glyph>
<glyph name="acircumflex" format="1">
  <advance width="598"/>
  <unicode hex="00E2"/>
  <outline>
    <contour>
      <point x="450" y="511" type="line"/>
      <point x="417" y="448" type="line"/>
      <point x="411" y="448" type="line"/>
      <point x="385" y="493"/>
      <point x="333" y="521"/>
      <point x="272" y="521" type="curve" smooth="yes"/>
      <point x="122" y="521"/>
      <point x="31" y="371"/>
      <point x="31" y="191" type="curve" smooth="yes"/>
      <point x="31" y="66"/>
      <point x="91" y="-10"/>
      <point x="203" y="-10" type="curve" smooth="yes"/>
      <point x="266" y="-10"/>
      <point x="321" y="21"/>
      <point x="360" y="66" type="curve"/>
      <point x="365" y="17"/>
      <point x="398" y="-10"/>
      <point x="466" y="-10" type="curve" smooth="yes"/>
      <point x="500" y="-10"/>
      <point x="535" y="0"/>
      <point x="556" y="11" type="curve"/>
      <point x="570" y="104" type="line"/>
      <point x="560" y="97"/>
      <point x="542" y="90"/>
      <point x="528" y="90" type="curve" smooth="yes"/>
      <point x="512" y="90"/>
      <point x="503" y="100"/>
      <point x="503" y="117" type="curve" smooth="yes"/>
      <point x="503" y="132"/>
      <point x="544" y="421"/>
      <point x="557" y="511" type="curve"/>
    </contour>
    <contour>
      <point x="357" y="130"/>
      <point x="310" y="90"/>
      <point x="256" y="90" type="curve" smooth="yes"/>
      <point x="208" y="90"/>
      <point x="175" y="121"/>
      <point x="175" y="183" type="curve" smooth="yes"/>
      <point x="175" y="192"/>
      <point x="176" y="201"/>
      <point x="189" y="294" type="curve" smooth="yes"/>
      <point x="201" y="375"/>
      <point x="247" y="415"/>
      <point x="302" y="415" type="curve" smooth="yes"/>
      <point x="349" y="415"/>
      <point x="383" y="384"/>
      <point x="383" y="322" type="curve" smooth="yes"/>
      <point x="383" y="313"/>
      <point x="382" y="304"/>
      <point x="369" y="211" type="curve" smooth="yes"/>
    </contour>
    <contour>
      <point x="143" y="575" type="line"/>
      <point x="247" y="575" type="line"/>
      <point x="344" y="658" type="line"/>
      <point x="416" y="575" type="line"/>
      <point x="521" y="575" type="line"/>
      <point x="482" y="623"/>
      <point x="443" y="672"/>
      <point x="405" y="720" type="curve"/>
      <point x="302" y="720" type="line"/>
    </contour>
  </outline>
</glyph>
<glyph name="otilde" format="1">
  <advance width="606"/>
  <unicode hex="00F5"/>
  <outline>
    <contour>
      <point x="566" y="446"/>
      <point x="475" y="521"/>
      <point x="348" y="521" type="curve" smooth="yes"/>
      <point x="332" y="521" type="line" smooth="yes"/>
      <point x="150" y="521"/>
      <point x="39" y="391"/>
      <point x="39" y="197" type="curve" smooth="yes"/>
      <point x="39" y="65"/>
      <point x="129" y="-10"/>
      <point x="257" y="-10" type="curve" smooth="yes"/>
      <point x="273" y="-10" type="line" smooth="yes"/>
      <point x="463" y="-10"/>
      <point x="566" y="129"/>
      <point x="566" y="314" type="curve" smooth="yes"/>
    </contour>
    <contour>
      <point x="395" y="131"/>
      <point x="339" y="90"/>
      <point x="279" y="90" type="curve" smooth="yes"/>
      <point x="224" y="90"/>
      <point x="185" y="122"/>
      <point x="185" y="188" type="curve" smooth="yes"/>
      <point x="185" y="196"/>
      <point x="186" y="205"/>
      <point x="198" y="296" type="curve" smooth="yes"/>
      <point x="209" y="380"/>
      <point x="264" y="421"/>
      <point x="326" y="421" type="curve" smooth="yes"/>
      <point x="381" y="421"/>
      <point x="420" y="389"/>
      <point x="420" y="323" type="curve" smooth="yes"/>
      <point x="420" y="315"/>
      <point x="419" y="306"/>
      <point x="407" y="215" type="curve" smooth="yes"/>
    </contour>
    <contour>
      <point x="502" y="720" type="line"/>
      <point x="492" y="697"/>
      <point x="472" y="682"/>
      <point x="444" y="682" type="curve" smooth="yes"/>
      <point x="390" y="682"/>
      <point x="343" y="720"/>
      <point x="279" y="720" type="curve" smooth="yes"/>
      <point x="201" y="720"/>
      <point x="144" y="655"/>
      <point x="136" y="596" type="curve"/>
      <point x="201" y="596" type="line"/>
      <point x="211" y="619"/>
      <point x="230" y="633"/>
      <point x="258" y="633" type="curve" smooth="yes"/>
      <point x="312" y="633"/>
      <point x="360" y="596"/>
      <point x="424" y="596" type="curve" smooth="yes"/>
      <point x="502" y="596"/>
      <point x="559" y="660"/>
      <point x="567" y="720" type="curve"/>
    </contour>
  </outline>
</glyph>
<glyph name="ydieresis" format="1">
  <advance width="545"/>
  <unicode hex="00FF"/>
  <outline>
    <contour>
      <point x="583" y="511" type="line"/>
      <point x="439" y="511" type="line"/>
      <point x="287" y="190" type="line"/>
      <point x="281" y="190" type="line"/>
      <point x="214" y="511" type="line"/>
      <point x="59" y="511" type="line"/>
      <point x="181" y="10" type="line"/>
      <point x="154" y="-53"/>
      <point x="120" y="-83"/>
      <point x="77" y="-83" type="curve" smooth="yes"/>
      <point x="53" y="-83"/>
      <point x="25" y="-75"/>
      <point x="12" y="-69" type="curve"/>
      <point x="-1" y="-172" type="line"/>
      <point x="18" y="-182"/>
      <point x="46" y="-187"/>
      <point x="81" y="-187" type="curve" smooth="yes"/>
      <point x="190" y="-187"/>
      <point x="271" y="-92"/>
      <point x="333" y="28" type="curve" smooth="yes"/>
    </contour>
    <contour>
      <point x="163" y="598" type="line"/>
      <point x="284" y="598" type="line"/>
      <point x="301" y="720" type="line"/>
      <point x="180" y="720" type="line"/>
    </contour>
    <contour>
      <point x="367" y="598" type="line"/>
      <point x="488" y="598" type="line"/>
      <point x="505" y="720" type="line"/>
      <point x="384" y="720" type="line"/>
    </contour>
  </outline>
</glyph>
<glyph name="florin" format="1">
  <advance width="381"/>
  <unicode hex="0192"/>
  <outline>
    <contour>
      <point x="411" y="707" type="line"/>
      <point x="385" y="721"/>
      <point x="334" y="728"/>
      <point x="304" y="728" type="curve" smooth="yes"/>
      <point x="208" y="728"/>
      <point x="144" y="685"/>
      <point x="128" y="574" type="curve" smooth="yes"/>
      <point x="119" y="511" type="line"/>
      <point x="58" y="511" type="line"/>
      <point x="45" y="411" type="line"/>
      <point x="105" y="411" type="line"/>
      <point x="84" y="270"/>
      <point x="63" y="121"/>
      <point x="44" y="-21" type="curve" smooth="yes"/>
      <point x="37" y="-70"/>
      <point x="14" y="-87"/>
      <point x="-22" y="-87" type="curve" smooth="yes"/>
      <point x="-38" y="-87"/>
      <point x="-67" y="-81"/>
      <point x="-82" y="-74" type="curve"/>
      <point x="-94" y="-165" type="line"/>
      <point x="-71" y="-178"/>
      <point x="-27" y="-185"/>
      <point x="5" y="-185" type="curve" smooth="yes"/>
      <point x="108" y="-185"/>
      <point x="177" y="-132"/>
      <point x="194" y="-1" type="curve" smooth="yes"/>
      <point x="212" y="133"/>
      <point x="232" y="276"/>
      <point x="251" y="411" type="curve"/>
      <point x="370" y="411" type="line"/>
      <point x="385" y="511" type="line"/>
      <point x="265" y="511" type="line"/>
      <point x="273" y="591"/>
      <point x="281" y="630"/>
      <point x="339" y="630" type="curve" smooth="yes"/>
      <point x="355" y="630"/>
      <point x="384" y="623"/>
      <point x="399" y="618" type="curve"/>
    </contour>
  </outline>
</glyph>
<glyph name="dotaccent" format="1">
  <advance width="280"/>
  <unicode hex="02D9"/>
  <outline>
    <contour>
      <point x="206" y="710"/>
      <point x="182" y="736"/>
      <point x="148" y="736" type="curve" smooth="yes"/>
      <point x="105" y="736"/>
      <point x="73" y="700"/>
      <point x="73" y="659" type="curve" smooth="yes"/>
      <point x="73" y="628"/>
      <point x="97" y="604"/>
      <point x="128" y="604" type="curve" smooth="yes"/>
      <point x="171" y="604"/>
      <point x="206" y="639"/>
      <point x="206" y="678" type="curve" smooth="yes"/>
    </contour>
    <contour>
      <point x="117" y="511" type="move" name="_top"/>
    </contour>
  </outline>
</glyph>
<glyph name="uni0326" format="1">
  <advance width="277"/>
  <unicode hex="0326"/>
  <outline>
    <contour>
      <point x="150" y="-250" type="line"/>
      <point x="190" y="-143" type="line"/>
      <point x="206" y="-30" type="line"/>
      <point x="60" y="-30" type="line"/>
      <point x="41" y="-167" type="line"/>
      <point x="104" y="-167" type="line"/>
      <point x="76" y="-250" type="line"/>
    </contour>
    <contour>
      <point x="132" y="0" type="move" name="_bottom"/>
    </contour>
  </outline>
</glyph>
<glyph name="Delta" format="1">
  <advance width="673"/>
  <unicode hex="0394"/>
  <outline>
    <contour>
      <point x="12" y="0" type="line"/>
      <point x="590" y="0" type="line"/>
      <point x="601" y="79" type="line"/>
      <point x="458" y="686" type="line"/>
      <point x="337" y="686" type="line"/>
      <point x="23" y="79" type="line"/>
    </contour>
    <contour>
      <point x="380" y="561" type="line"/>
      <point x="487" y="92" type="line"/>
      <point x="141" y="92" type="line"/>
    </contour>
  </outline>
</glyph>
<glyph name="pi" format="1">
  <advance width="679"/>
  <unicode hex="03C0"/>
  <outline>
    <contour>
      <point x="669" y="411" type="line"/>
      <point x="695" y="511" type="line"/>
      <point x="238" y="511" type="line" smooth="yes"/>
      <point x="137" y="511"/>
      <point x="78" y="499"/>
      <point x="48" y="478" type="curve"/>
      <point x="52" y="400" type="line"/>
      <point x="79" y="408"/>
      <point x="114" y="411"/>
      <point x="169" y="411" type="curve"/>
      <point x="151" y="295"/>
      <point x="93" y="103"/>
      <point x="43" y="0" type="curve"/>
      <point x="182" y="0" type="line"/>
      <point x="229" y="83"/>
      <point x="287" y="290"/>
      <point x="309" y="411" type="curve"/>
      <point x="445" y="411" type="line"/>
      <point x="408" y="148" type="line" smooth="yes"/>
      <point x="402" y="107"/>
      <point x="399" y="71"/>
      <point x="399" y="45" type="curve" smooth="yes"/>
      <point x="399" y="23"/>
      <point x="401" y="8"/>
      <point x="406" y="0" type="curve"/>
      <point x="544" y="0" type="line"/>
      <point x="543" y="12"/>
      <point x="542" y="28"/>
      <point x="542" y="48" type="curve" smooth="yes"/>
      <point x="542" y="76"/>
      <point x="546" y="112"/>
      <point x="552" y="158" type="curve" smooth="yes"/>
      <point x="587" y="411" type="line"/>
    </contour>
  </outline>
</glyph>
<glyph name="quoteright" format="1">
  <advance width="277"/>
  <unicode hex="2019"/>
  <outline>
    <contour>
      <point x="148" y="395" type="line"/>
      <point x="214" y="563" type="line"/>
      <point x="231" y="686" type="line"/>
      <point x="85" y="686" type="line"/>
      <point x="64" y="539" type="line"/>
      <point x="127" y="539" type="line"/>
      <point x="75" y="395" type="line"/>
    </contour>
  </outline>
</glyph>
<glyph name="quotedblbase" format="1">
  <advance width="472"/>
  <unicode hex="201E"/>
  <outline>
    <contour>
      <point x="343" y="-144" type="line"/>
      <point x="409" y="24" type="line"/>
      <point x="426" y="147" type="line"/>
      <point x="280" y="147" type="line"/>
      <point x="259" y="0" type="line"/>
      <point x="322" y="0" type="line"/>
      <point x="270" y="-144" type="line"/>
    </contour>
    <contour>
      <point x="148" y="-144" type="line"/>
      <point x="214" y="24" type="line"/>
      <point x="231" y="147" type="line"/>
      <point x="85" y="147" type="line"/>
      <point x="64" y="0" type="line"/>
      <point x="127" y="0" type="line"/>
      <point x="75" y="-144" type="line"/>
    </contour>
  </outline>
</glyph>
<glyph name="guilsinglleft" format="1">
  <advance width="277"/>
  <unicode hex="2039"/>
  <outline>
    <contour>
      <point x="205" y="163" type="line"/>
      <point x="141" y="337" type="line"/>
      <point x="254" y="511" type="line"/>
      <point x="192" y="511" type="line"/>
      <point x="47" y="337" type="line"/>
      <point x="143" y="163" type="line"/>
    </contour>
  </outline>
</glyph>
<glyph name="guilsinglright" format="1">
  <advance width="277"/>
  <unicode hex="203A"/>
  <outline>
    <contour>
      <point x="84" y="163" type="line"/>
      <point x="230" y="337" type="line"/>
      <point x="133" y="511" type="line"/>
      <point x="71" y="511" type="line"/>
      <point x="136" y="337" type="line"/>
      <point x="22" y="163" type="line"/>
    </contour>
  </outline>
</glyph>
<glyph name="estimated" format="1">
  <advance width="743"/>
  <unicode hex="212E"/>
  <outline>
    <contour>
      <point x="120" y="150" type="line"/>
      <point x="244" y="70" type="line"/>
      <point x="244" y="599" type="line"/>
      <point x="120" y="539" type="line"/>
    </contour>
    <contour>
      <point x="525" y="599" type="line"/>
      <point x="525" y="344" type="line"/>
      <point x="652" y="344" type="line"/>
      <point x="652" y="539" type="line"/>
    </contour>
    <contour>
      <point x="98" y="307" type="line"/>
      <point x="678" y="307" type="line"/>
      <point x="678" y="382" type="line"/>
      <point x="98" y="382" type="line"/>
    </contour>
    <contour>
      <point x="700" y="307" type="line"/>
      <point x="700" y="363" type="line" smooth="yes"/>
      <point x="700" y="571"/>
      <point x="574" y="696"/>
      <point x="385" y="696" type="curve" smooth="yes"/>
      <point x="196" y="696"/>
      <point x="70" y="571"/>
      <point x="70" y="362" type="curve" smooth="yes"/>
      <point x="70" y="324" type="line" smooth="yes"/>
      <point x="70" y="115"/>
      <point x="196" y="-10"/>
      <point x="387" y="-10" type="curve" smooth="yes"/>
      <point x="504" y="-10"/>
      <point x="598" y="35"/>
      <point x="654" y="116" type="curve"/>
      <point x="583" y="164" type="line"/>
      <point x="542" y="98"/>
      <point x="469" y="68"/>
      <point x="387" y="68" type="curve" smooth="yes"/>
      <point x="256" y="68"/>
      <point x="162" y="151"/>
      <point x="162" y="319" type="curve" smooth="yes"/>
      <point x="162" y="367" type="line" smooth="yes"/>
      <point x="162" y="535"/>
      <point x="253" y="619"/>
      <point x="385" y="619" type="curve" smooth="yes"/>
      <point x="518" y="619"/>
      <point x="608" y="535"/>
      <point x="608" y="366" type="curve" smooth="yes"/>
      <point x="608" y="307" type="line"/>
    </contour>
  </outline>
</glyph>
<glyph name="summation" format="1">
  <advance width="643"/>
  <unicode hex="2211"/>
  <outline>
    <contour>
      <point x="567" y="-100" type="line"/>
      <point x="587" y="42" type="line"/>
      <point x="199" y="42" type="line"/>
      <point x="199" y="46" type="line"/>
      <point x="473" y="327" type="line"/>
      <point x="298" y="580" type="line"/>
      <point x="298" y="584" type="line"/>
      <point x="641" y="584" type="line"/>
      <point x="660" y="719" type="line"/>
      <point x="92" y="719" type="line"/>
      <point x="78" y="617" type="line"/>
      <point x="288" y="309" type="line"/>
      <point x="-21" y="-9" type="line"/>
      <point x="-34" y="-100" type="line"/>
    </contour>
  </outline>
</glyph>
<glyph name="uniFB01" format="1">
  <advance width="641"/>
  <unicode hex="FB01"/>
  <outline>
    <contour>
      <point x="397" y="707" type="line"/>
      <point x="371" y="721"/>
      <point x="320" y="728"/>
      <point x="290" y="728" type="curve" smooth="yes"/>
      <point x="194" y="728"/>
      <point x="130" y="685"/>
      <point x="114" y="574" type="curve" smooth="yes"/>
      <point x="105" y="511" type="line"/>
      <point x="44" y="511" type="line"/>
      <point x="31" y="411" type="line"/>
      <point x="91" y="411" type="line"/>
      <point x="70" y="270"/>
      <point x="49" y="121"/>
      <point x="30" y="-21" type="curve" smooth="yes"/>
      <point x="23" y="-70"/>
      <point x="0" y="-87"/>
      <point x="-36" y="-87" type="curve" smooth="yes"/>
      <point x="-52" y="-87"/>
      <point x="-81" y="-81"/>
      <point x="-96" y="-74" type="curve"/>
      <point x="-108" y="-165" type="line"/>
      <point x="-85" y="-178"/>
      <point x="-41" y="-185"/>
      <point x="-9" y="-185" type="curve" smooth="yes"/>
      <point x="94" y="-185"/>
      <point x="163" y="-132"/>
      <point x="180" y="-1" type="curve" smooth="yes"/>
      <point x="198" y="133"/>
      <point x="218" y="276"/>
      <point x="237" y="411" type="curve"/>
      <point x="356" y="411" type="line"/>
      <point x="371" y="511" type="line"/>
      <point x="251" y="511" type="line"/>
      <point x="259" y="591"/>
      <point x="267" y="630"/>
      <point x="325" y="630" type="curve" smooth="yes"/>
      <point x="341" y="630"/>
      <point x="370" y="623"/>
      <point x="385" y="618" type="curve"/>
    </contour>
    <contour>
      <point x="524" y="0" type="line"/>
      <point x="596" y="511" type="line"/>
      <point x="450" y="511" type="line"/>
      <point x="378" y="0" type="line"/>
    </contour>
    <contour>
      <point x="462" y="605" type="line"/>
      <point x="610" y="605" type="line"/>
      <point x="626" y="720" type="line"/>
      <point x="478" y="720" type="line"/>
    </contour>
  </outline>
</glyph>
